:version 1.10
:name ASF
:units
  mass 1
  length 1
  angle deg
:documentation
  ASF file generated by Kaydara
:root
  axis xyz
  order  tx ty tz rx ry rz
  position 0 0 0
  orientation 0 0 0
:bonedata
  begin
    id 1
    name RightUpLegDummy
    direction -0.718183 -0.695806 0.00816078
    length 4.904
    axis 0 0 0 xyz
  end
  begin
    id 2
    name RightUpLeg
    direction 3.53373e-006 -0.995788 0.0916898
    length 17.4976
    axis -3.49089 -0.000906625 0.000286804 xyz
    dof rx ry rz
  end
  begin
    id 3
    name RightLeg
    direction 0.00371092 -0.995096 -0.0988419
    length 16.5821
    axis 3.68512 0.0193738 -0.131023 xyz
    dof rx ry rz
  end
  begin
    id 4
    name RightFoot
    direction 0.00079151 -0.46099 0.887405
    length 3.77069
    axis 4.81691e-005 -0.120479 -0.188788 xyz
    dof rx ry rz
  end
  begin
    id 5
    name RightToes
    direction 0 0 0
    length 0
    axis 0 0 0 xyz
    dof rx ry rz
  end
  begin
    id 6
    name SpineDummy
    direction 8.3039e-015 1 4.57515e-016
    length 4.6813
    axis 0 0 0 xyz
  end
  begin
    id 7
    name Spine
    direction -3.15643e-008 0.999988 0.00495137
    length 10.1015
    axis -0.001389 0.000121418 2.40972e-006 xyz
    dof rx ry rz
  end
  begin
    id 8
    name Spine1
    direction 0 0 0
    length 0
    axis -0.001389 0.000121451 1.30017e-006 xyz
    dof rx ry rz
  end
  begin
    id 9
    name HEadDummy
    direction -1.99912e-008 0.999999 0.00127422
    length 3.43865
    axis -0.001389 0.000121451 1.30017e-006 xyz
  end
  begin
    id 10
    name HEad
    direction 0 0 0
    length 0
    axis 0 0 0 xyz
    dof rx ry rz
  end
  begin
    id 11
    name LeftShoulder1Dummy
    direction 0.998891 -0.0402509 -0.0244456
    length 3.5433
    axis -0.001389 0.000121451 1.30017e-006 xyz
  end
  begin
    id 12
    name LeftShoulder1
    direction 0.99951 -0.000327763 0.0313091
    length 4.05031
    axis -0.001389 0.000121451 1.30017e-006 xyz
    dof rx ry rz
  end
  begin
    id 13
    name LeftArm
    direction 0.998561 -0.00100056 -0.0536182
    length 10.3537
    axis -23.1894 0.134784 0.967509 xyz
    dof rx ry rz
  end
  begin
    id 14
    name LeftForeArm
    direction 0.998903 0.00866432 0.046012
    length 8.70632
    axis -9.91835 -0.06569 -0.177794 xyz
    dof rx ry rz
  end
  begin
    id 15
    name LeftHand
    direction 0 0 0
    length 0
    axis 0 0 0 xyz
    dof rx ry rz
  end
  begin
    id 16
    name RightShoulderDummy
    direction -0.998891 -0.0402509 -0.0244414
    length 3.5433
    axis -0.001389 0.000121451 1.30017e-006 xyz
  end
  begin
    id 17
    name RightShoulder
    direction -0.99951 -0.000327807 0.0313133
    length 4.05031
    axis 0.215806 0.000203643 -0.0068026 xyz
    dof rx ry rz
  end
  begin
    id 18
    name RightArm
    direction -0.998573 -0.000999564 -0.053403
    length 10.3947
    axis -23.2009 -0.134239 -0.964101 xyz
    dof rx ry rz
  end
  begin
    id 19
    name RightForeArm
    direction -0.998898 0.00868028 0.0461306
    length 8.68355
    axis -9.92322 0.0658061 0.178868 xyz
    dof rx ry rz
  end
  begin
    id 20
    name RightHand
    direction 0 0 0
    length 0
    axis 0 0 0 xyz
    dof rx ry rz
  end
  begin
    id 21
    name LeftUpLegDummy
    direction 0.718183 -0.695806 0.00816078
    length 4.904
    axis 0 0 0 xyz
  end
  begin
    id 22
    name LeftUpLeg
    direction -6.81752e-006 -0.995793 0.0916337
    length 17.4976
    axis -3.48766 0.00143442 -0.000524262 xyz
    dof rx ry rz
  end
  begin
    id 23
    name LeftLeg
    direction -0.00601358 -0.995091 -0.0987824
    length 16.5821
    axis 3.68178 -0.00654042 -0.000285133 xyz
    dof rx ry rz
  end
  begin
    id 24
    name LeftFoot
    direction -0.00417578 -0.460984 0.887399
    length 3.77069
    axis 1.87233e-006 4.66016e-005 -8.6538e-006 xyz
    dof rx ry rz
  end
  begin
    id 25
    name LeftToes
    direction 0 0 0
    length 0
    axis 0 0 0 xyz
    dof rx ry rz
  end
:hierarchy
  begin
    root RightUpLegDummy SpineDummy LeftUpLegDummy
    RightUpLegDummy RightUpLeg
    RightUpLeg RightLeg
    RightLeg RightFoot
    RightFoot RightToes
    SpineDummy Spine
    Spine Spine1
    Spine1 HEadDummy LeftShoulder1Dummy RightShoulderDummy
    HEadDummy HEad
    LeftShoulder1Dummy LeftShoulder1
    LeftShoulder1 LeftArm
    LeftArm LeftForeArm
    LeftForeArm LeftHand
    RightShoulderDummy RightShoulder
    RightShoulder RightArm
    RightArm RightForeArm
    RightForeArm RightHand
    LeftUpLegDummy LeftUpLeg
    LeftUpLeg LeftLeg
    LeftLeg LeftFoot
    LeftFoot LeftToes
  end

:SAMPLES-PER-SECOND 30
:FULLY-SPECIFIED
:DEGREES
99
root  1.89018 40.0043 2.14606 -151.314 -83.8522 143.192
RightUpLeg  -15.8179 -1.33423 -8.02003
RightLeg  59.9545 -2.835 -5.79414
RightFoot  5.48212 -0.608324 4.3656
RightToes  0.000481922 0.542163 -0.142578
Spine  5.76459 -0.289623 -3.58231
Spine1  10.257 -1.05694 1.46872
HEad  -7.89956 4.9088 -4.35031
LeftShoulder1  9.8518 -13.5521 -50.424
LeftArm  3.55296 4.14395 -23.7328
LeftForeArm  37.5603 -16.1108 -5.63886
LeftHand  -0.25398 0.0180481 5.50724
RightShoulder  6.11311 9.94167 39.3625
RightArm  -4.74549 -18.2213 33.0987
RightForeArm  15.4032 10.4019 6.85097
RightHand  -0.904918 2.81457 -13.0352
LeftUpLeg  0.536447 6.89131 -6.95696
LeftLeg  13.3897 11.3095 -1.5379
LeftFoot  -7.40867 -0.171835 6.30767
LeftToes  1.06245e-005 4.65869e-005 -8.65513e-006
100
root  0.668357 40.1102 2.16692 -147.573 -85.1956 139.337
RightUpLeg  -18.2124 -2.2362 -7.0927
RightLeg  53.0088 -3.16829 -4.88669
RightFoot  3.75923 -0.579178 4.56981
RightToes  0.000481922 0.542163 -0.142578
Spine  6.6152 -0.885844 -4.35792
Spine1  9.7492 -2.21232 3.09466
HEad  -8.05583 5.22725 -4.13997
LeftShoulder1  9.69164 -13.4282 -49.9711
LeftArm  5.60908 -0.586493 -23.7895
LeftForeArm  33.9554 -19.1423 -4.43134
LeftHand  -0.25398 0.0180481 5.50724
RightShoulder  5.86576 9.72527 38.2861
RightArm  -0.579128 -22.946 31.9556
RightForeArm  10.5537 14.0249 6.64794
RightHand  -0.960484 3.27058 -13.1063
LeftUpLeg  3.39431 5.19083 -6.38884
LeftLeg  12.055 11.6762 -2.312
LeftFoot  -8.52659 -0.102877 6.25492
LeftToes  1.06245e-005 4.65869e-005 -8.65513e-006
101
root  -0.580869 40.0451 2.1608 -138.694 -86.1422 130.287
RightUpLeg  -19.2809 -3.45006 -6.55829
RightLeg  43.4076 -3.47735 -3.81041
RightFoot  2.39211 -0.624364 5.31176
RightToes  0.000481922 0.542163 -0.142578
Spine  7.30747 -1.3972 -5.17517
Spine1  9.54551 -3.10068 3.86806
HEad  -8.34986 5.33998 -3.86344
LeftShoulder1  9.57601 -13.4068 -49.4397
LeftArm  5.87707 -5.05691 -23.5047
LeftForeArm  31.7298 -22.2166 -3.54003
LeftHand  -0.25398 0.0180481 5.50724
RightShoulder  5.71215 9.58585 37.6098
RightArm  2.05084 -26.412 30.9283
RightForeArm  8.06093 15.8487 6.28931
RightHand  -1.13327 3.89949 -14.4242
LeftUpLeg  5.73711 4.62383 -6.17105
LeftLeg  12.0969 11.136 -2.61078
LeftFoot  -10.6902 0.0305382 5.76809
LeftToes  1.06245e-005 4.65869e-005 -8.65513e-006
102
root  -1.90971 39.864 2.12538 -127.515 -86.306 119.238
RightUpLeg  -19.4999 -5.16329 -6.1951
RightLeg  31.6952 -2.73826 -2.16624
RightFoot  2.15188 -0.671549 5.79341
RightToes  0.000481922 0.542163 -0.142578
Spine  7.1897 -1.6819 -6.05848
Spine1  9.70394 -3.52788 4.01525
HEad  -8.76531 5.1945 -3.42094
LeftShoulder1  9.49526 -13.5071 -48.7325
LeftArm  3.47481 -8.96132 -23.0924
LeftForeArm  32.3247 -25.2221 -3.64944
LeftHand  -0.25398 0.0180481 5.50724
RightShoulder  5.5841 9.41931 37.1955
RightArm  1.25383 -28.6089 30.2249
RightForeArm  9.20971 15.0244 6.4279
RightHand  -1.19264 4.03457 -14.9465
LeftUpLeg  7.60605 4.47974 -6.36114
LeftLeg  12.7101 10.4222 -2.7391
LeftFoot  -13.0934 0.159132 5.20476
LeftToes  1.06245e-005 4.65869e-005 -8.65513e-006
103
root  -3.29555 39.7319 2.09342 -118.371 -86.1631 110.609
RightUpLeg  -19.0593 -7.84713 -5.56652
RightLeg  18.3868 -0.407704 -0.0538626
RightFoot  2.28784 -0.724162 6.18271
RightToes  0.000481922 0.542163 -0.142578
Spine  6.34916 -1.92418 -6.62661
Spine1  10.0541 -3.80609 4.31817
HEad  -9.03079 4.94667 -2.94047
LeftShoulder1  9.42109 -13.5882 -48.1171
LeftArm  0.490013 -11.9938 -22.6244
LeftForeArm  33.8777 -28.2628 -4.27187
LeftHand  -0.25398 0.0180481 5.50724
RightShoulder  5.48503 9.28878 36.8723
RightArm  -2.6159 -29.8533 29.8267
RightForeArm  13.3576 11.8662 6.68757
RightHand  -1.07753 3.52311 -14.2739
LeftUpLeg  9.62136 4.21787 -6.70677
LeftLeg  12.2326 10.0166 -2.91911
LeftFoot  -14.628 0.230426 4.94414
LeftToes  1.06245e-005 4.65869e-005 -8.65513e-006
